<svg version="1.1" id="Layer_1" xmlns="http://www.w3.org/2000/svg" xmlns:xlink="http://www.w3.org/1999/xlink" x="0px" y="0px"
	 width="100%" viewBox="0 0 496 496" enable-background="new 0 0 496 496" xml:space="preserve">
<path fill="#000000" opacity="1.000000" stroke="none" 
	d="
M143.159119,298.098083 
	C158.277817,288.120514 174.210068,280.568756 190.830750,274.455048 
	C194.289490,273.182831 195.786545,271.379181 195.766464,267.537262 
	C195.723068,259.232056 199.471802,252.043442 203.795547,245.290787 
	C212.417953,231.824539 223.274536,220.345200 236.256470,211.007523 
	C239.337219,208.791580 241.034958,206.273712 241.878067,202.660126 
	C244.069199,193.269012 246.534332,183.941788 248.899597,174.591476 
	C249.185349,173.461868 249.493179,172.335190 249.855240,171.228226 
	C250.304886,169.853500 251.151688,168.740585 252.733673,169.054962 
	C254.515518,169.409058 254.362823,171.015625 254.185211,172.291992 
	C253.429382,177.723312 252.528259,183.134232 251.749695,188.562576 
	C251.141785,192.801025 250.636292,197.054153 250.053772,201.543610 
	C252.945435,202.040787 255.017014,200.743958 257.196594,200.245682 
	C266.166870,198.194901 272.680511,201.849426 275.261353,210.687485 
	C277.942505,219.869110 276.322418,229.188278 275.859619,238.459473 
	C275.785919,239.936279 275.464722,241.400742 275.940277,243.109924 
	C277.903229,238.329239 279.806976,233.523041 281.853546,228.778412 
	C282.912048,226.324432 284.144196,223.394196 287.422668,224.046204 
	C290.931122,224.743988 290.267334,228.053116 290.314941,230.644745 
	C290.384155,234.414139 290.332733,238.185745 290.332733,241.921234 
	C295.621002,242.670685 297.515411,239.934875 299.079681,236.262497 
	C307.202301,217.193100 316.523712,198.792740 329.976471,182.803329 
	C334.156982,177.834503 338.174469,172.692795 343.173187,168.487442 
	C344.943115,166.998413 346.830353,165.519485 348.903442,164.545517 
	C354.174530,162.068970 358.091125,164.175766 359.307831,169.856552 
	C361.101196,178.229568 359.179474,186.455612 357.905487,194.603882 
	C353.173340,224.869476 346.090637,254.616364 337.158081,283.916992 
	C336.520782,286.007477 336.619232,288.669525 333.778259,289.752899 
	C331.063263,288.233582 332.397400,285.936249 332.892456,284.093018 
	C338.240540,264.178864 343.299377,244.200546 347.083221,223.917465 
	C349.856445,209.051773 352.725128,194.200684 354.456177,179.167297 
	C354.872955,175.548035 355.539185,170.703903 352.308990,169.040482 
	C348.942108,167.306671 346.321686,171.594742 344.023193,174.005844 
	C326.213959,192.687668 313.347778,214.501968 303.481354,238.181366 
	C304.826050,239.550446 306.127899,238.593430 307.345734,238.485046 
	C308.636627,238.370193 309.984589,237.735687 310.793121,239.397827 
	C310.440582,241.487289 308.647186,241.367416 307.298981,241.476761 
	C302.317291,241.880768 299.718689,244.732346 298.116943,249.247971 
	C296.505829,253.790115 294.409546,258.162689 292.467133,262.583771 
	C291.580750,264.601196 290.535431,266.769348 287.842102,266.346863 
	C284.730713,265.858734 284.850372,263.130798 284.782318,260.849396 
	C284.659180,256.720490 284.747467,252.585297 284.747467,248.544266 
	C280.305908,247.390808 279.313354,250.056381 278.402191,252.869705 
	C273.940857,266.644073 269.542938,280.439880 264.933655,294.164673 
	C264.063995,296.754181 264.018280,301.581268 260.254150,300.575500 
	C256.556702,299.587524 258.913696,295.480377 259.481232,292.796478 
	C261.957458,281.086304 264.584534,269.407898 267.184174,257.724060 
	C267.508057,256.268433 268.047577,254.848801 266.893280,252.896713 
	C258.916626,254.523270 251.146927,257.344482 243.351379,260.021515 
	C241.866257,260.531525 241.471375,262.235565 241.357727,263.812531 
	C240.736053,272.437988 239.160599,280.984283 239.300797,289.675415 
	C239.381363,294.669281 238.976578,299.741608 243.083191,303.637848 
	C238.843277,305.930145 236.883224,305.016815 235.792755,300.602386 
	C234.252365,294.366486 234.501999,288.039825 235.076096,281.721741 
	C235.527161,276.757812 236.150803,271.809601 236.609253,266.846222 
	C236.727951,265.561035 236.996750,264.173950 235.880219,262.733185 
	C231.024353,262.903992 227.496704,264.558319 225.566238,269.835083 
	C218.143234,290.125183 208.898987,309.500275 194.418945,325.853821 
	C178.966782,343.305298 159.911377,351.441925 136.420547,347.230103 
	C134.148376,346.822693 131.889648,346.076416 129.763199,345.164429 
	C118.519753,340.342407 115.005028,329.902161 121.140297,319.339142 
	C126.385452,310.308685 134.487091,304.145538 143.159119,298.098083 
M123.512604,324.417236 
	C122.268005,333.949432 125.003883,338.788239 133.840378,342.262146 
	C137.396942,343.660400 141.108475,344.483185 144.972153,344.760468 
	C164.662613,346.173645 179.617737,337.512543 191.787003,322.904419 
	C202.970673,309.479462 211.168503,294.307495 217.597534,278.143127 
	C218.911789,274.838745 220.832596,271.685638 221.139893,267.406067 
	C219.200699,267.924683 217.617508,268.232300 216.116730,268.769928 
	C210.181519,270.896149 204.280334,273.117157 198.351654,275.261871 
	C178.744843,282.354675 159.802933,290.832397 142.688828,302.889801 
	C134.908661,308.371185 127.693283,314.557678 123.512604,324.417236 
M248.412247,211.966888 
	C246.435349,226.509903 244.458466,241.052917 242.371918,256.402618 
	C250.071136,254.237244 256.991821,252.077591 264.027893,250.402603 
	C267.503326,249.575272 269.068359,247.742081 269.492035,244.401764 
	C270.662811,235.170334 271.511658,225.933380 270.821686,216.610046 
	C270.622406,213.917114 270.016754,211.364502 268.851501,208.951416 
	C266.572296,204.231430 262.566925,202.740128 257.686676,203.420059 
	C253.111862,204.057449 248.765854,205.230499 248.412247,211.966888 
M219.086609,231.563583 
	C209.525070,242.623352 200.527832,253.949783 200.244125,270.518707 
	C206.663269,268.388550 212.088394,266.311737 217.670609,264.824646 
	C222.015808,263.667084 224.464737,261.285736 225.703949,256.989716 
	C227.915085,249.324387 230.542938,241.780365 232.875931,234.148743 
	C234.895050,227.543839 236.746902,220.887817 239.078842,212.855438 
	C230.946838,218.691422 224.883530,224.460052 219.086609,231.563583 
M232.113495,259.863098 
	C235.245270,259.188812 237.724411,257.888489 238.194016,254.247070 
	C239.743546,242.231720 241.358292,230.224792 242.947983,218.214630 
	C241.450302,221.392059 240.587738,224.713089 239.569031,227.985504 
	C236.650345,237.361435 233.596146,246.696304 230.811050,256.111145 
	C230.495880,257.176514 227.721893,259.419464 232.113495,259.863098 
M291.388763,252.993515 
	C292.220673,250.611282 294.042603,248.557236 294.063843,245.757797 
	C290.140137,246.441528 289.124359,249.393738 291.388763,252.993515 
M283.953674,237.179688 
	C283.425537,239.747925 281.501770,242.010925 281.980164,245.678314 
	C286.328491,242.656250 284.702972,239.017166 284.569275,235.754120 
	C284.489441,235.898285 284.400024,236.038132 284.332397,236.187820 
	C284.264709,236.337631 284.218781,236.497253 283.953674,237.179688 
z"/>
<path fill="#000000" opacity="1.000000" stroke="none" 
	d="
M357.793365,275.970276 
	C360.873322,277.010101 361.262848,278.905426 359.533875,280.931702 
	C358.499207,282.144257 356.586700,282.126587 355.594330,280.786591 
	C353.911987,278.514923 354.806061,276.823486 357.793365,275.970276 
z"/>
</svg>