<?xml version="1.0" encoding="UTF-8"?>
<!DOCTYPE svg PUBLIC "-//W3C//DTD SVG 1.1//EN" "http://www.w3.org/Graphics/SVG/1.1/DTD/svg11.dtd">
<svg xmlns="http://www.w3.org/2000/svg" version="1.1" width="500px" height="500px" style="shape-rendering:geometricPrecision; text-rendering:geometricPrecision; image-rendering:optimizeQuality; fill-rule:evenodd; clip-rule:evenodd" xmlns:xlink="http://www.w3.org/1999/xlink">
<g><path style="opacity:1" fill="#102c57" d="M -0.5,-0.5 C 166.167,-0.5 332.833,-0.5 499.5,-0.5C 499.5,166.167 499.5,332.833 499.5,499.5C 332.833,499.5 166.167,499.5 -0.5,499.5C -0.5,332.833 -0.5,166.167 -0.5,-0.5 Z"/></g>
<g><path style="opacity:1" fill="#e9e8e8" d="M 219.5,152.5 C 220.5,152.5 221.5,152.5 222.5,152.5C 215.004,172.47 207.837,192.47 201,212.5C 215.129,197.516 231.962,186.682 251.5,180C 258.782,177.431 265.615,178.264 272,182.5C 274.464,185.726 275.631,189.393 275.5,193.5C 273.272,204.416 270.439,215.083 267,225.5C 271.13,218.739 275.63,212.239 280.5,206C 282.955,205.228 284.622,206.061 285.5,208.5C 283.016,217.094 281.182,225.761 280,234.5C 293.29,215.793 308.124,198.293 324.5,182C 331.891,176.277 339.557,170.944 347.5,166C 356.854,163.513 360.354,167.013 358,176.5C 346.125,210.58 330.791,242.913 312,273.5C 311.5,273.167 311,272.833 310.5,272.5C 327.145,241.549 341.311,209.549 353,176.5C 353.497,173.854 353.664,171.187 353.5,168.5C 350.575,168.46 347.909,169.293 345.5,171C 330.158,181.003 316.658,193.17 305,207.5C 295.782,219.051 286.948,230.884 278.5,243C 275.433,244.164 273.767,243.164 273.5,240C 275.75,231.512 277.583,223.012 279,214.5C 267.579,231.668 256.913,249.335 247,267.5C 245.644,268.38 244.144,268.714 242.5,268.5C 248.368,254.744 254.534,241.077 261,227.5C 265.804,216.424 268.971,204.924 270.5,193C 271.297,184.962 267.631,180.795 259.5,180.5C 236.5,185.915 217.333,197.581 202,215.5C 199.597,219.635 197.763,223.968 196.5,228.5C 217.495,227.526 238.495,227.026 259.5,227C 242.974,228.332 226.308,229.332 209.5,230C 203.48,229.962 197.813,231.295 192.5,234C 188.186,244.111 185.186,254.611 183.5,265.5C 183.437,267.481 184.104,269.148 185.5,270.5C 183.994,271.747 182.494,271.747 181,270.5C 180.833,268.5 180.667,266.5 180.5,264.5C 182.225,253.598 184.892,242.932 188.5,232.5C 185.428,232.183 182.428,232.516 179.5,233.5C 167.257,254.142 151.257,271.308 131.5,285C 114.434,293.984 97.1006,294.651 79.5,287C 68.4705,280.06 66.6372,271.226 74,260.5C 82.685,253.071 92.5184,247.571 103.5,244C 127.306,236.754 151.64,232.421 176.5,231C 192.257,205.656 206.59,179.49 219.5,152.5 Z"/></g>
<g><path style="opacity:1" fill="#1f365f" d="M 203.5,190.5 C 204.097,190.735 204.43,191.235 204.5,192C 199.861,204.112 195.361,216.279 191,228.5C 188.379,229.991 185.545,230.658 182.5,230.5C 189.48,217.209 196.48,203.876 203.5,190.5 Z"/></g>
<g><path style="opacity:1" fill="#122d58" d="M 170.5,233.5 C 174.439,233.178 175.272,234.511 173,237.5C 163.306,252.197 151.806,265.364 138.5,277C 124.713,288.363 109.046,292.363 91.5,289C 82.9623,287.123 76.7957,282.289 73,274.5C 72.1593,270.88 72.826,267.546 75,264.5C 86.4158,253.54 99.9158,246.374 115.5,243C 133.754,238.468 152.087,235.302 170.5,233.5 Z"/></g>
<g><path style="opacity:1" fill="#9ea7b6" d="M 390.5,262.5 C 389.833,262.5 389.5,262.833 389.5,263.5C 386.981,261.822 384.148,260.822 381,260.5C 376.529,261.513 372.029,261.679 367.5,261C 373.661,259.38 379.994,259.047 386.5,260C 388.066,260.608 389.4,261.442 390.5,262.5 Z"/></g>
<g><path style="opacity:1" fill="#a4acba" d="M 218.5,261.5 C 219.713,262.497 219.546,263.497 218,264.5C 217.53,263.423 217.697,262.423 218.5,261.5 Z"/></g>
<g><path style="opacity:1" fill="#cfd1d7" d="M 201.5,270.5 C 200.469,269.751 199.302,269.085 198,268.5C 194.299,271.383 192.965,270.383 194,265.5C 194.333,265.167 194.667,264.833 195,264.5C 195.085,266.085 195.251,267.418 195.5,268.5C 197.149,267.352 198.649,266.019 200,264.5C 200.085,266.085 200.251,267.418 200.5,268.5C 202.756,267.579 203.756,265.912 203.5,263.5C 208.041,263.331 208.374,263.998 204.5,265.5C 205.723,266.614 207.056,266.781 208.5,266C 209.833,263.667 211.167,261.333 212.5,259C 211.5,258.667 210.5,258.333 209.5,258C 212.816,257.545 214.982,255.712 216,252.5C 215.981,254.107 215.815,255.774 215.5,257.5C 216.552,257.351 217.552,257.517 218.5,258C 216.866,258.494 215.199,258.66 213.5,258.5C 212.798,261.578 211.798,264.578 210.5,267.5C 210.833,268.167 211.167,268.833 211.5,269.5C 213.753,268.747 215.587,267.414 217,265.5C 218.221,269.127 219.888,269.127 222,265.5C 223.299,265.966 224.799,265.966 226.5,265.5C 226.36,267.124 227.027,268.29 228.5,269C 226.047,271.353 224.381,270.853 223.5,267.5C 222.186,268.313 221.019,269.313 220,270.5C 217.313,270.041 214.479,270.041 211.5,270.5C 209.575,270.41 208.408,269.41 208,267.5C 206.98,268.891 206.147,270.391 205.5,272C 203.741,272.798 202.074,272.631 200.5,271.5C 200.624,270.893 200.957,270.56 201.5,270.5 Z"/></g>
<g><path style="opacity:1" fill="#3f5375" d="M 201.5,270.5 C 202.767,269.913 203.767,269.913 204.5,270.5C 203.386,271.776 202.386,271.776 201.5,270.5 Z"/></g>
<g><path style="opacity:1" fill="#c7cad1" d="M 333.5,256.5 C 334.097,256.735 334.43,257.235 334.5,258C 332.638,261.919 330.971,265.919 329.5,270C 329.833,270.5 330.167,271 330.5,271.5C 332.737,269.252 335.404,267.919 338.5,267.5C 338.5,268.5 338.5,269.5 338.5,270.5C 337.127,270.343 335.793,270.51 334.5,271C 338.21,272.224 340.877,271.058 342.5,267.5C 343.736,268.246 345.07,268.579 346.5,268.5C 346.281,269.675 346.614,270.675 347.5,271.5C 349.574,268.922 352.24,267.422 355.5,267C 357.543,263.747 359.71,260.58 362,257.5C 361.129,261.772 359.629,265.939 357.5,270C 357.667,270.5 357.833,271 358,271.5C 359.554,268.898 361.72,267.731 364.5,268C 365.833,268.667 365.833,269.333 364.5,270C 363.062,270.219 361.729,270.719 360.5,271.5C 363.026,272.51 365.192,271.843 367,269.5C 367.448,271.409 366.615,272.576 364.5,273C 360.845,273.795 357.678,272.962 355,270.5C 351.459,273.905 347.792,273.905 344,270.5C 341.527,271.954 338.861,272.954 336,273.5C 334.739,273.241 333.739,272.574 333,271.5C 330.888,273.922 328.888,273.922 327,271.5C 324.959,272.423 322.792,272.756 320.5,272.5C 319.833,269.167 321.167,267.167 324.5,266.5C 325.308,266.808 325.975,267.308 326.5,268C 325.284,269.74 323.618,270.74 321.5,271C 324.308,271.92 326.475,271.087 328,268.5C 330.121,264.593 331.955,260.593 333.5,256.5 Z"/></g>
<g><path style="opacity:1" fill="#e5e4e6" d="M 338.5,261.5 C 340.604,261.201 342.604,261.534 344.5,262.5C 342.649,264.456 340.316,265.456 337.5,265.5C 337.433,264.041 337.766,262.708 338.5,261.5 Z"/></g>
<g><path style="opacity:1" fill="#203860" d="M 352.5,268.5 C 353.239,268.369 353.906,268.536 354.5,269C 353.333,270.167 352.167,271.333 351,272.5C 350.7,270.934 351.2,269.601 352.5,268.5 Z"/></g>
<g><path style="opacity:1" fill="#e2e2e3" d="M 390.5,262.5 C 391.844,265.733 390.844,268.233 387.5,270C 383.884,271.487 380.217,272.82 376.5,274C 379.978,276.706 380.311,279.706 377.5,283C 380.817,283.498 384.15,283.665 387.5,283.5C 387.5,283.833 387.5,284.167 387.5,284.5C 383.154,284.334 378.821,284.501 374.5,285C 356.369,294.296 337.369,296.963 317.5,293C 313.848,291.792 312.848,289.625 314.5,286.5C 314.5,286.833 314.5,287.167 314.5,287.5C 314.574,289.411 315.574,290.578 317.5,291C 323.833,291.667 330.167,291.667 336.5,291C 346.942,289.278 357.276,287.112 367.5,284.5C 368.71,284.068 369.71,283.401 370.5,282.5C 380.049,278.577 379.716,275.577 369.5,273.5C 369.667,273.167 369.833,272.833 370,272.5C 376.225,270.536 382.392,268.369 388.5,266C 389.252,265.329 389.586,264.496 389.5,263.5C 389.5,262.833 389.833,262.5 390.5,262.5 Z"/></g>
<g><path style="opacity:1" fill="#acb3bf" d="M 370.5,282.5 C 369.71,283.401 368.71,284.068 367.5,284.5C 353.767,281.71 339.767,280.877 325.5,282C 321.259,282.787 317.592,284.621 314.5,287.5C 314.5,287.167 314.5,286.833 314.5,286.5C 317.943,282.778 322.277,280.611 327.5,280C 341.913,279.398 356.247,280.231 370.5,282.5 Z"/></g>
<g><path style="opacity:1" fill="#122d58" d="M 367.5,284.5 C 357.276,287.112 346.942,289.278 336.5,291C 330.167,291.667 323.833,291.667 317.5,291C 315.574,290.578 314.574,289.411 314.5,287.5C 317.592,284.621 321.259,282.787 325.5,282C 339.767,280.877 353.767,281.71 367.5,284.5 Z"/></g>
<g><path style="opacity:1" fill="#a6aebb" d="M 387.5,284.5 C 387.5,284.167 387.5,283.833 387.5,283.5C 393.445,282.302 399.445,281.802 405.5,282C 399.562,283.222 393.562,284.055 387.5,284.5 Z"/></g>
</svg>
