<?xml version="1.0" encoding="UTF-8"?>
<!DOCTYPE svg PUBLIC "-//W3C//DTD SVG 1.1//EN" "http://www.w3.org/Graphics/SVG/1.1/DTD/svg11.dtd">
<svg xmlns="http://www.w3.org/2000/svg" version="1.1" width="500px" height="500px" style="shape-rendering:geometricPrecision; text-rendering:geometricPrecision; image-rendering:optimizeQuality; fill-rule:evenodd; clip-rule:evenodd" xmlns:xlink="http://www.w3.org/1999/xlink">
<g><path style="opacity:0.021" fill="#fefffe" d="M 23.5,-0.5 C 27.8333,-0.5 32.1667,-0.5 36.5,-0.5C 33.2066,12.0491 28.5399,24.0491 22.5,35.5C 21.675,36.3857 20.675,36.719 19.5,36.5C 21.8037,24.2892 23.137,11.9558 23.5,-0.5 Z"/></g>
<g><path style="opacity:0.014" fill="#fefffe" d="M 62.5,-0.5 C 66.5,-0.5 70.5,-0.5 74.5,-0.5C 73.3068,8.55323 69.4734,16.2199 63,22.5C 62.586,22.0426 62.086,21.7093 61.5,21.5C 60.3937,14.1062 60.7271,6.77288 62.5,-0.5 Z"/></g>
<g><path style="opacity:0.008" fill="#fefffe" d="M 96.5,-0.5 C 104.167,-0.5 111.833,-0.5 119.5,-0.5C 108.873,14.5335 102.039,31.2001 99,49.5C 96.6975,53.427 94.3642,57.427 92,61.5C 89.7607,62.8692 87.9274,62.3692 86.5,60C 86.3905,50.4585 88.0572,41.1251 91.5,32C 91.6593,21.1424 93.326,10.3091 96.5,-0.5 Z"/></g>
<g><path style="opacity:0.004" fill="#fefffe" d="M 24.5,89.5 C 25.5,89.5 26.5,89.5 27.5,89.5C 27.5479,92.2919 26.2146,94.1253 23.5,95C 24.3081,95.3076 24.9747,95.8076 25.5,96.5C 23.0305,101.942 19.6971,106.776 15.5,111C 14.552,111.483 13.552,111.649 12.5,111.5C 12.0807,108.675 13.0807,106.509 15.5,105C 15.1667,104.667 14.8333,104.333 14.5,104C 16.5,102 18.5,100 20.5,98C 19.8333,97.6667 19.1667,97.3333 18.5,97C 20.6286,94.5608 22.6286,92.0608 24.5,89.5 Z"/></g>
<g><path style="opacity:1" fill="#112c57" d="M 228.5,97.5 C 280.106,94.1942 323.606,111.194 359,148.5C 398.592,197.393 407.259,251.393 385,310.5C 353.302,374.78 301.469,405.28 229.5,402C 175.245,395.137 134.745,367.97 108,320.5C 84.2402,271.059 85.2402,222.059 111,173.5C 131.972,139.534 161.472,116.367 199.5,104C 209.195,101.323 218.862,99.156 228.5,97.5 Z"/></g>
<g><path style="opacity:1" fill="#e5e8ed" d="M 208.5,240.5 C 209.492,240.328 210.158,240.662 210.5,241.5C 206.061,241.918 202.561,243.918 200,247.5C 198.547,257.126 198.214,266.793 199,276.5C 201.014,278.672 200.514,279.505 197.5,279C 196.874,278.25 196.374,277.416 196,276.5C 195.065,266.578 195.565,256.745 197.5,247C 197.167,246.5 196.833,246 196.5,245.5C 194.111,246.18 191.778,247.014 189.5,248C 182.455,268.768 171.122,286.768 155.5,302C 143.892,310.753 130.892,313.753 116.5,311C 102.595,306.254 99.7621,297.754 108,285.5C 118.546,275.804 130.379,267.971 143.5,262C 157.906,256.089 172.406,250.589 187,245.5C 195.319,221.879 202.819,198.046 209.5,174C 209.833,173.833 210.167,173.667 210.5,173.5C 210.833,174.333 211.167,175.167 211.5,176C 208.286,192.778 205.786,209.612 204,226.5C 213.653,210.513 226.82,198.346 243.5,190C 248.5,188 253.5,188 258.5,190C 260.43,192.258 261.93,194.758 263,197.5C 263.667,202.5 263.667,207.5 263,212.5C 262.311,217.252 261.645,221.919 261,226.5C 263.65,220.53 266.316,214.53 269,208.5C 270.494,207.253 271.994,207.253 273.5,208.5C 274.173,216.128 274.339,223.795 274,231.5C 282.146,213.198 291.812,195.865 303,179.5C 308.167,173 314,167.167 320.5,162C 326.87,160.697 329.87,163.364 329.5,170C 325.532,200.705 318.199,230.538 307.5,259.5C 306.369,257.926 306.202,256.259 307,254.5C 314.401,229.162 320.401,203.496 325,177.5C 325.667,173.5 325.667,169.5 325,165.5C 323.132,164.328 321.298,164.495 319.5,166C 310.865,174.295 303.365,183.462 297,193.5C 288.768,208.798 280.934,224.298 273.5,240C 272.216,240.684 271.049,240.517 270,239.5C 269.279,232.477 269.446,225.477 270.5,218.5C 270.333,217.5 270.167,216.5 270,215.5C 263.184,231.477 257.184,247.811 252,264.5C 251.29,265.973 250.124,266.64 248.5,266.5C 251.996,249.848 255.496,233.181 259,216.5C 259.848,209.101 259.515,201.767 258,194.5C 253.832,190.236 248.998,189.403 243.5,192C 224.372,201.791 210.872,216.624 203,236.5C 202.506,238.134 202.34,239.801 202.5,241.5C 204.5,241.167 206.5,240.833 208.5,240.5 Z"/></g>
<g><path style="opacity:1" fill="#233962" d="M 201.5,210.5 C 202.147,211.274 202.48,212.274 202.5,213.5C 200.592,223.099 199.092,232.765 198,242.5C 195.808,243.399 193.642,244.399 191.5,245.5C 191.167,245.167 190.833,244.833 190.5,244.5C 194.574,233.278 198.241,221.945 201.5,210.5 Z"/></g>
<g><path style="opacity:1" fill="#c3cad5" d="M 210.5,241.5 C 210.158,240.662 209.492,240.328 208.5,240.5C 223.253,236.06 238.253,232.06 253.5,228.5C 254.167,228.833 254.833,229.167 255.5,229.5C 240.552,233.654 225.552,237.654 210.5,241.5 Z"/></g>
<g><path style="opacity:1" fill="#a5afc0" d="M 370.5,236.5 C 370.5,236.833 370.5,237.167 370.5,237.5C 369.092,236.939 367.592,236.605 366,236.5C 361.142,237.595 356.309,238.428 351.5,239C 357.691,235.785 364.025,234.952 370.5,236.5 Z"/></g>
<g><path style="opacity:1" fill="#b0b9c7" d="M 331.5,243.5 C 332.773,244.077 332.773,244.743 331.5,245.5C 329.922,246.64 328.256,247.14 326.5,247C 328.233,245.811 329.9,244.644 331.5,243.5 Z"/></g>
<g><path style="opacity:1" fill="#d2d7df" d="M 351.5,247.5 C 347.714,248.695 347.714,249.362 351.5,249.5C 348.324,250.359 345.157,250.693 342,250.5C 341.383,249.551 341.549,248.718 342.5,248C 341.906,247.536 341.239,247.369 340.5,247.5C 341.209,246.596 342.209,246.263 343.5,246.5C 343.976,242.905 345.142,239.572 347,236.5C 346.047,240.397 345.713,244.397 346,248.5C 347.062,247.101 348.395,246.101 350,245.5C 351.03,245.836 351.53,246.503 351.5,247.5 Z"/></g>
<g><path style="opacity:1" fill="#61708e" d="M 351.5,249.5 C 347.714,249.362 347.714,248.695 351.5,247.5C 354.187,246.939 354.187,247.606 351.5,249.5 Z"/></g>
<g><path style="opacity:1" fill="#bdc5d1" d="M 323.5,254.5 C 321.907,255.867 320.574,255.534 319.5,253.5C 320.508,249.134 321.675,244.8 323,240.5C 323.48,244.594 322.98,248.594 321.5,252.5C 321.747,253.713 322.414,254.38 323.5,254.5 Z"/></g>
<g><path style="opacity:1" fill="#cfd4dd" d="M 333.5,250.5 C 333.56,249.957 333.893,249.624 334.5,249.5C 335.265,250.612 336.265,251.279 337.5,251.5C 337.189,252.478 336.522,253.145 335.5,253.5C 334.824,252.398 334.158,251.398 333.5,250.5 Z"/></g>
<g><path style="opacity:1" fill="#122d58" d="M 182.5,249.5 C 183.675,249.281 184.675,249.614 185.5,250.5C 179.371,266.103 171.204,280.436 161,293.5C 148.788,307.571 133.621,312.404 115.5,308C 108.079,305.324 105.246,300.158 107,292.5C 110.123,286.746 114.289,281.913 119.5,278C 139.321,265.753 160.321,256.253 182.5,249.5 Z"/></g>
<g><path style="opacity:1" fill="#dde0e7" d="M 340.5,247.5 C 339.587,249.086 339.587,250.586 340.5,252C 339.423,252.47 338.423,252.303 337.5,251.5C 338.026,249.77 339.026,248.436 340.5,247.5 Z"/></g>
<g><path style="opacity:1" fill="#e8ebef" d="M 370.5,236.5 C 372.377,237.659 372.877,239.326 372,241.5C 368.974,244.026 365.807,246.36 362.5,248.5C 363.711,249.874 364.711,251.374 365.5,253C 365.241,254.261 364.574,255.261 363.5,256C 364.094,256.464 364.761,256.631 365.5,256.5C 365.5,256.833 365.5,257.167 365.5,257.5C 361.625,258.177 358.292,260.01 355.5,263C 342.849,270.608 329.182,274.441 314.5,274.5C 316.167,273.833 317.833,273.167 319.5,272.5C 332.172,269.886 344.172,265.386 355.5,259C 353.866,258.506 352.199,258.34 350.5,258.5C 348.585,258.784 346.919,258.451 345.5,257.5C 350.297,257.879 354.964,257.379 359.5,256C 363.96,251.351 363.126,249.517 357,250.5C 355.743,250.15 355.409,249.483 356,248.5C 360.581,246.127 365.081,243.627 369.5,241C 370.337,239.989 370.67,238.822 370.5,237.5C 370.5,237.167 370.5,236.833 370.5,236.5 Z"/></g>
<g><path style="opacity:1" fill="#bec6d1" d="M 329.5,253.5 C 327.735,254.461 325.735,254.795 323.5,254.5C 324.332,250.951 326.332,249.618 329.5,250.5C 328.91,251.799 327.91,252.632 326.5,253C 327.448,253.483 328.448,253.649 329.5,253.5 Z"/></g>
<g><path style="opacity:1" fill="#d3d8e0" d="M 333.5,250.5 C 333.049,253.307 331.715,254.307 329.5,253.5C 329.951,250.693 331.285,249.693 333.5,250.5 Z"/></g>
<g><path style="opacity:1" fill="#9ba6b8" d="M 365.5,257.5 C 365.5,257.167 365.5,256.833 365.5,256.5C 372.95,253.81 380.283,251.81 387.5,250.5C 380.364,253.451 373.03,255.784 365.5,257.5 Z"/></g>
<g><path style="opacity:1" fill="#b5becb" d="M 315.5,251.5 C 319.278,252.193 319.278,253.36 315.5,255C 316.5,255.333 317.5,255.667 318.5,256C 316.866,256.494 315.199,256.66 313.5,256.5C 313.392,254.486 314.058,252.82 315.5,251.5 Z"/></g>
<g><path style="opacity:1" fill="#142e59" d="M 350.5,258.5 C 352.199,258.34 353.866,258.506 355.5,259C 344.172,265.386 332.172,269.886 319.5,272.5C 317.167,272.5 314.833,272.5 312.5,272.5C 313.548,268.281 316.215,265.447 320.5,264C 330.439,261.085 340.439,259.252 350.5,258.5 Z"/></g>
<g><path style="opacity:1" fill="#a0abbc" d="M 345.5,257.5 C 346.919,258.451 348.585,258.784 350.5,258.5C 340.439,259.252 330.439,261.085 320.5,264C 316.215,265.447 313.548,268.281 312.5,272.5C 314.833,272.5 317.167,272.5 319.5,272.5C 317.833,273.167 316.167,273.833 314.5,274.5C 312.405,274.24 311.072,273.074 310.5,271C 313.698,265.724 318.364,262.391 324.5,261C 331.438,259.414 338.438,258.247 345.5,257.5 Z"/></g>
<g><path style="opacity:1" fill="#b8c0cd" d="M 222.5,258.5 C 223.404,259.209 223.737,260.209 223.5,261.5C 224.552,261.351 225.552,261.517 226.5,262C 221.931,264.202 220.597,267.702 222.5,272.5C 223.814,271.687 224.981,270.687 226,269.5C 226.333,270.167 226.667,270.833 227,271.5C 228.265,269.603 229.931,268.27 232,267.5C 233.326,267.755 234.326,268.422 235,269.5C 238.11,268.327 238.277,268.827 235.5,271C 233.892,271.658 232.725,271.158 232,269.5C 231.308,270.025 230.808,270.692 230.5,271.5C 227.384,272.184 224.384,273.184 221.5,274.5C 220.522,274.023 219.689,273.357 219,272.5C 217.568,278.088 214.901,278.755 211,274.5C 209.89,276.037 208.39,276.703 206.5,276.5C 206.231,274.571 206.731,272.905 208,271.5C 208.333,272.5 208.667,273.5 209,274.5C 210,273.167 211,271.833 212,270.5C 212.333,271.833 212.667,273.167 213,274.5C 214.057,272.781 214.89,270.947 215.5,269C 216.332,268.312 216.998,268.479 217.5,269.5C 216.371,271.529 216.871,271.863 219,270.5C 220.815,266.384 221.981,262.384 222.5,258.5 Z"/></g>
<g><path style="opacity:0.004" fill="#fefffe" d="M 51.5,499.5 C 43.5,499.5 35.5,499.5 27.5,499.5C 33.6815,498.757 40.0148,498.091 46.5,497.5C 48.4216,497.801 50.0883,498.467 51.5,499.5 Z"/></g>
</svg>
