<svg id="svg" version="1.1" xmlns="http://www.w3.org/2000/svg" xmlns:xlink="http://www.w3.org/1999/xlink" width="400" height="400" viewBox="0, 0, 400,400"><g id="svgg"><path id="path0" d="M276.522 132.885 C 267.410 138.921,252.683 159.512,243.614 178.900 C 236.408 194.304,230.088 200.095,231.015 190.444 C 232.403 175.998,228.166 175.146,222.835 188.800 C 219.097 198.373,218.023 199.562,218.709 193.363 C 221.854 164.963,216.646 155.029,201.851 161.211 C 200.258 161.876,198.793 162.259,198.595 162.062 C 198.194 161.660,201.479 136.842,202.058 135.906 C 202.260 135.579,202.062 135.085,201.616 134.810 C 200.463 134.097,199.728 136.272,195.874 151.824 L 192.448 165.647 186.599 170.128 C 170.258 182.644,157.307 201.189,156.628 213.044 L 156.362 217.676 148.381 220.873 C 96.169 241.790,76.598 271.781,111.895 276.785 C 137.604 280.429,160.939 260.231,176.687 220.702 C 180.755 210.490,180.705 210.560,184.969 209.144 C 189.995 207.474,189.873 207.234,188.778 216.657 C 187.501 227.640,187.973 240.319,189.723 242.068 C 191.786 244.128,193.043 242.714,191.391 240.192 C 189.220 236.878,190.235 209.440,192.616 207.065 C 193.088 206.595,200.533 204.131,213.000 200.320 C 214.988 199.712,214.910 200.315,210.372 220.603 C 208.157 230.507,206.521 238.788,206.737 239.004 C 208.066 240.333,209.591 237.300,212.602 227.345 C 219.668 203.975,222.251 197.685,225.083 196.948 L 227.600 196.293 228.000 203.882 C 228.598 215.236,230.137 214.818,235.582 201.823 C 239.261 193.042,239.408 192.834,242.272 192.320 C 243.882 192.031,245.740 191.458,246.400 191.047 C 247.567 190.319,244.849 190.668,241.421 191.685 C 239.677 192.203,240.418 190.324,247.608 176.002 C 258.515 154.278,277.246 130.678,281.472 133.334 C 285.614 135.937,280.803 168.837,269.924 212.305 C 266.106 227.561,265.373 231.701,266.731 230.333 C 268.317 228.735,277.742 191.988,281.488 172.800 C 288.882 134.917,287.707 125.477,276.522 132.885 M210.773 161.937 C 216.267 164.233,218.029 173.834,215.998 190.415 C 214.853 199.760,216.003 198.696,203.081 202.375 C 192.744 205.317,192.800 205.316,192.800 202.681 C 192.800 198.950,197.755 164.425,198.389 163.740 C 200.637 161.310,207.041 160.378,210.773 161.937 M188.778 178.131 C 185.564 189.235,179.377 208.147,178.599 209.245 C 178.269 209.710,174.040 211.470,169.200 213.158 C 164.360 214.845,159.893 216.415,159.274 216.647 C 156.052 217.852,160.371 202.587,165.495 194.659 C 171.614 185.192,190.203 166.210,191.004 168.611 C 191.160 169.079,190.158 173.363,188.778 178.131 M192.419 188.140 C 189.864 207.181,190.245 206.030,186.030 207.466 C 181.308 209.075,181.325 209.483,185.575 196.174 C 187.643 189.698,190.384 180.620,191.667 176.000 C 194.845 164.557,195.078 168.316,192.419 188.140 M227.838 190.545 C 227.615 195.183,227.463 195.527,225.400 196.076 C 222.744 196.783,222.749 196.839,224.940 190.600 C 227.166 184.262,228.142 184.244,227.838 190.545 M236.000 194.818 C 236.000 195.047,234.837 197.657,233.416 200.618 L 230.832 206.000 230.571 201.222 C 230.362 197.396,230.588 196.241,231.708 195.422 C 233.086 194.415,236.000 194.004,236.000 194.818 M177.600 212.707 C 177.600 213.880,171.315 228.604,167.861 235.523 C 152.755 265.785,131.018 280.511,109.796 274.862 C 89.583 269.481,93.444 252.716,118.467 237.210 C 128.651 230.899,152.208 219.658,156.728 218.952 C 157.428 218.843,158.465 218.463,159.034 218.109 C 162.627 215.867,177.600 211.511,177.600 212.707 M284.000 222.400 C 284.000 223.467,284.533 224.000,285.600 224.000 C 286.667 224.000,287.200 223.467,287.200 222.400 C 287.200 221.333,286.667 220.800,285.600 220.800 C 284.533 220.800,284.000 221.333,284.000 222.400 " stroke="none" fill="#000000" fill-rule="evenodd"></path></g></svg>