<?xml version="1.0" encoding="UTF-8"?>
<!DOCTYPE svg PUBLIC "-//W3C//DTD SVG 1.1//EN" "http://www.w3.org/Graphics/SVG/1.1/DTD/svg11.dtd">
<svg xmlns="http://www.w3.org/2000/svg" version="1.1" width="490px" height="490px" style="shape-rendering:geometricPrecision; text-rendering:geometricPrecision; image-rendering:optimizeQuality; fill-rule:evenodd; clip-rule:evenodd" xmlns:xlink="http://www.w3.org/1999/xlink">
<g><path style="opacity:1" fill="#102c57" d="M 243.5,-0.5 C 244.167,-0.5 244.833,-0.5 245.5,-0.5C 271.935,16.2255 298.602,32.7255 325.5,49C 356.251,56.1878 386.918,63.6878 417.5,71.5C 425.31,102.072 432.81,132.739 440,163.5C 456.275,190.398 472.775,217.065 489.5,243.5C 489.5,244.167 489.5,244.833 489.5,245.5C 472.775,271.935 456.275,298.602 440,325.5C 432.667,356.167 425.333,386.833 418,417.5C 387.257,425.227 356.424,432.727 325.5,440C 298.602,456.275 271.935,472.775 245.5,489.5C 244.833,489.5 244.167,489.5 243.5,489.5C 217.065,472.775 190.398,456.275 163.5,440C 132.833,432.667 102.167,425.333 71.5,418C 63.7729,387.257 56.2729,356.424 49,325.5C 32.7255,298.602 16.2255,271.935 -0.5,245.5C -0.5,244.833 -0.5,244.167 -0.5,243.5C 16.2255,217.065 32.7255,190.398 49,163.5C 56.3333,132.833 63.6667,102.167 71,71.5C 101.743,63.7729 132.576,56.2729 163.5,49C 190.398,32.7255 217.065,16.2255 243.5,-0.5 Z"/></g>
<g><path style="opacity:1" fill="#425b81" d="M 243.5,9.5 C 269.611,25.0599 295.611,40.8932 321.5,57C 351.608,63.8185 381.441,71.3185 411,79.5C 418,108.833 425,138.167 432,167.5C 447.833,193.167 463.667,218.833 479.5,244.5C 463.667,270.167 447.833,295.833 432,321.5C 425.181,351.608 417.681,381.441 409.5,411C 380.167,418 350.833,425 321.5,432C 295.833,447.833 270.167,463.667 244.5,479.5C 218.833,463.667 193.167,447.833 167.5,432C 137.392,425.181 107.559,417.681 78,409.5C 71,380.167 64,350.833 57,321.5C 41.1667,295.833 25.3333,270.167 9.5,244.5C 25.3333,218.833 41.1667,193.167 57,167.5C 63.8185,137.392 71.3185,107.559 79.5,78C 108.833,71 138.167,64 167.5,57C 193.066,41.392 218.399,25.5587 243.5,9.5 Z"/></g>
</svg>
