<?xml version="1.0" encoding="UTF-8"?>
<!DOCTYPE svg PUBLIC "-//W3C//DTD SVG 1.1//EN" "http://www.w3.org/Graphics/SVG/1.1/DTD/svg11.dtd">
<svg xmlns="http://www.w3.org/2000/svg" version="1.1" width="353px" height="305px" style="shape-rendering:geometricPrecision; text-rendering:geometricPrecision; image-rendering:optimizeQuality; fill-rule:evenodd; clip-rule:evenodd" xmlns:xlink="http://www.w3.org/1999/xlink">
<g><path style="opacity:0.998" fill="#fefefe" d="M 32.5,-0.5 C 32.8333,-0.5 33.1667,-0.5 33.5,-0.5C 15.8818,31.3102 9.04844,65.3102 13,101.5C 21.7337,141.56 44.5671,170.393 81.5,188C 101.261,195.283 121.594,197.45 142.5,194.5C 143.604,169.329 153.27,148.163 171.5,131C 183.846,122.335 196.179,122.335 208.5,131C 216.91,139.838 218.743,150.004 214,161.5C 206.526,179.641 193.692,192.474 175.5,200C 169.7,202.045 163.867,203.878 158,205.5C 162.974,225.492 174.474,240.658 192.5,251C 229.889,270.307 268.223,272.307 307.5,257C 316.277,253.974 324.277,249.641 331.5,244C 312.186,244.908 292.853,245.742 273.5,246.5C 272.963,243.028 273.963,240.195 276.5,238C 282.337,236.026 288.337,234.693 294.5,234C 309.127,232.097 323.793,230.597 338.5,229.5C 344.347,228.444 349.013,230.111 352.5,234.5C 352.5,236.833 352.5,239.167 352.5,241.5C 335.316,264.689 315.649,285.689 293.5,304.5C 292.833,304.5 292.167,304.5 291.5,304.5C 290.314,302.806 290.481,301.139 292,299.5C 300.278,286.89 308.944,274.556 318,262.5C 318.667,261.5 318.667,260.5 318,259.5C 275.278,284.966 231.778,286.133 187.5,263C 165.644,250.796 151.31,232.629 144.5,208.5C 76.4752,213.59 29.9752,184.59 5,121.5C 2.82553,113.442 0.992197,105.442 -0.5,97.5C -0.5,88.8333 -0.5,80.1667 -0.5,71.5C 2.41029,43.7595 13.4103,19.7595 32.5,-0.5 Z M 189.5,137.5 C 201.049,138.53 205.215,144.53 202,155.5C 193.518,176.794 178.018,188.46 155.5,190.5C 157.904,170.857 166.238,154.357 180.5,141C 183.459,139.396 186.459,138.229 189.5,137.5 Z"/></g>
</svg>
