<?xml version="1.0" encoding="UTF-8"?>
<!DOCTYPE svg PUBLIC "-//W3C//DTD SVG 1.1//EN" "http://www.w3.org/Graphics/SVG/1.1/DTD/svg11.dtd">
<svg xmlns="http://www.w3.org/2000/svg" version="1.1" width="396px" height="442px" style="shape-rendering:geometricPrecision; text-rendering:geometricPrecision; image-rendering:optimizeQuality; fill-rule:evenodd; clip-rule:evenodd" xmlns:xlink="http://www.w3.org/1999/xlink">
<g><path style="opacity:1" fill="#fefefe" d="M 368.5,-0.5 C 369.5,-0.5 370.5,-0.5 371.5,-0.5C 374.769,0.224897 377.602,1.89156 380,4.5C 387.88,18.3109 393.046,32.9776 395.5,48.5C 395.5,57.8333 395.5,67.1667 395.5,76.5C 388.399,153.347 359.899,221.013 310,279.5C 281.216,310.266 247.049,333.099 207.5,348C 181.761,357.412 156.095,366.912 130.5,376.5C 139.469,380.984 148.469,385.484 157.5,390C 163.151,394.467 166.317,400.301 167,407.5C 168.994,418.872 168.828,430.206 166.5,441.5C 165.833,441.5 165.167,441.5 164.5,441.5C 115.08,427.893 65.4136,414.727 15.5,402C 12.2167,400.439 9.38341,398.273 7,395.5C 3.57099,388.705 1.07099,381.705 -0.5,374.5C -0.5,365.833 -0.5,357.167 -0.5,348.5C 0.353612,342.771 1.85361,337.104 4,331.5C 25.7767,314.024 47.2767,296.191 68.5,278C 102.412,247.942 132.078,214.442 157.5,177.5C 160.061,179.607 161.894,182.274 163,185.5C 168.857,204.702 169.523,224.035 165,243.5C 162.305,251.891 158.305,259.558 153,266.5C 141.357,281.644 129.524,296.644 117.5,311.5C 128.109,311.771 138.442,309.938 148.5,306C 206.343,282.508 256.51,248.008 299,202.5C 344.252,142.607 367.418,74.9401 368.5,-0.5 Z"/></g>
</svg>
