<?xml version="1.0" encoding="UTF-8"?>
<!DOCTYPE svg PUBLIC "-//W3C//DTD SVG 1.1//EN" "http://www.w3.org/Graphics/SVG/1.1/DTD/svg11.dtd">
<svg xmlns="http://www.w3.org/2000/svg" version="1.1" width="561px" height="128px" style="shape-rendering:geometricPrecision; text-rendering:geometricPrecision; image-rendering:optimizeQuality; fill-rule:evenodd; clip-rule:evenodd" xmlns:xlink="http://www.w3.org/1999/xlink">
<g><path style="opacity:1" fill="#102c57" d="M -0.5,0.5 C -0.5,0.166667 -0.5,-0.166667 -0.5,-0.5C 168.5,-0.5 337.5,-0.5 506.5,-0.5C 524.167,17.8333 542.167,35.8333 560.5,53.5C 560.5,54.1667 560.5,54.8333 560.5,55.5C 556.299,58.8464 552.299,62.513 548.5,66.5C 534.368,80.1314 520.368,93.9648 506.5,108C 345.5,108.5 184.5,108.667 23.5,108.5C 15.5,108.5 7.5,108.5 -0.5,108.5C -0.5,108.167 -0.5,107.833 -0.5,107.5C 6.83333,100.833 13.8333,93.8333 20.5,86.5C 24.4356,84.2343 27.7689,81.2343 30.5,77.5C 35.1667,72.1667 40.1667,67.1667 45.5,62.5C 47.934,59.5624 50.6007,56.7291 53.5,54C 42.2984,42.6313 30.9651,31.4646 19.5,20.5C 13.1667,13.5 6.5,6.83333 -0.5,0.5 Z"/></g>
<g><path style="opacity:1" fill="#425b81" d="M 19.5,20.5 C 30.9651,31.4646 42.2984,42.6313 53.5,54C 50.6007,56.7291 47.934,59.5624 45.5,62.5C 32.7553,48.2524 19.422,34.4191 5.5,21C 10.1548,20.5008 14.8215,20.3342 19.5,20.5 Z"/></g>
<g><path style="opacity:1" fill="#435c82" d="M 548.5,66.5 C 549.882,69.3943 551.882,71.8943 554.5,74C 536.632,91.7014 518.965,109.535 501.5,127.5C 336.167,127.5 170.833,127.5 5.5,127.5C 11.5,121.167 17.5,114.833 23.5,108.5C 184.5,108.667 345.5,108.5 506.5,108C 520.368,93.9648 534.368,80.1314 548.5,66.5 Z"/></g>
<g><path style="opacity:1" fill="#73829c" d="M 30.5,77.5 C 27.7689,81.2343 24.4356,84.2343 20.5,86.5C 23.2311,82.7657 26.5644,79.7657 30.5,77.5 Z"/></g>
</svg>
