<!--?xml version="1.0" standalone="no"?-->
              <svg id="sw-js-blob-svg" viewBox="0 0 100 100" xmlns="http://www.w3.org/2000/svg" version="1.1">
                    <defs> 
                        <linearGradient id="sw-gradient" x1="0" x2="1" y1="1" y2="0">
                            <stop id="stop1" stop-color="rgba(16, 44, 87, 1)" offset="0%"></stop>
                            <stop id="stop2" stop-color="rgba(67, 92, 130, 1)" offset="100%"></stop>
                        </linearGradient>
                    </defs>
                <path fill="url(#sw-gradient)" d="M23.2,-30.3C31,-26.4,38.7,-20.7,42.6,-12.8C46.6,-5,46.7,5.1,40.8,10C34.8,14.9,22.6,14.6,14.8,17.7C6.9,20.8,3.5,27.4,-2,30.2C-7.6,33,-15.1,32.1,-20,28.1C-25,24,-27.2,16.8,-29.4,9.7C-31.5,2.5,-33.6,-4.5,-32.7,-11.6C-31.7,-18.7,-27.8,-25.8,-21.9,-30.3C-15.9,-34.8,-8,-36.6,-0.1,-36.5C7.7,-36.3,15.5,-34.2,23.2,-30.3Z" width="100%" height="100%" transform="translate(50 50)" stroke-width="0" style="transition: all 0.3s ease 0s;"></path>
              </svg>