<!--?xml version="1.0" standalone="no"?-->
              <svg id="sw-js-blob-svg" viewBox="0 0 100 100" xmlns="http://www.w3.org/2000/svg" version="1.1">
                    <defs> 
                        <linearGradient id="sw-gradient" x1="0" x2="1" y1="1" y2="0">
                            <stop id="stop1" stop-color="rgba(16, 44, 87, 1)" offset="0%"></stop>
                            <stop id="stop2" stop-color="rgba(67, 92, 130, 1)" offset="100%"></stop>
                        </linearGradient>
                    </defs>
                <path fill="url(#sw-gradient)" d="M13.1,-17.8C18.9,-13.7,27,-12.6,29.7,-8.6C32.4,-4.7,29.7,2.1,27.8,9.4C26,16.8,24.9,24.8,20.4,28.9C15.9,33,7.9,33.2,2,30.4C-3.9,27.6,-7.7,21.8,-11.6,17.5C-15.6,13.2,-19.6,10.4,-21.1,6.7C-22.5,2.9,-21.4,-1.8,-22,-9.3C-22.5,-16.7,-24.6,-26.8,-21.2,-31.6C-17.8,-36.5,-8.9,-36.1,-2.7,-32.5C3.6,-28.8,7.2,-21.9,13.1,-17.8Z" width="100%" height="100%" transform="translate(50 50)" stroke-width="0" style="transition: all 0.3s ease 0s;"></path>
              </svg>