<?xml version="1.0" encoding="UTF-8"?>
<!DOCTYPE svg PUBLIC "-//W3C//DTD SVG 1.1//EN" "http://www.w3.org/Graphics/SVG/1.1/DTD/svg11.dtd">
<svg xmlns="http://www.w3.org/2000/svg" version="1.1" width="600px" height="531px" style="shape-rendering:geometricPrecision; text-rendering:geometricPrecision; image-rendering:optimizeQuality; fill-rule:evenodd; clip-rule:evenodd" xmlns:xlink="http://www.w3.org/1999/xlink">
<g><path style="opacity:1" fill="#102c57" d="M 481.5,-0.5 C 481.833,-0.5 482.167,-0.5 482.5,-0.5C 482.167,44.1716 482.5,88.8383 483.5,133.5C 541.968,161.737 579.134,207.403 595,270.5C 596.748,279.269 598.248,287.935 599.5,296.5C 599.5,308.5 599.5,320.5 599.5,332.5C 593.952,377.592 575.952,416.926 545.5,450.5C 543.5,452.167 541.5,453.833 539.5,455.5C 538.833,455.5 538.5,455.833 538.5,456.5C 535.5,459.167 532.5,461.833 529.5,464.5C 528.833,464.5 528.5,464.833 528.5,465.5C 525.681,468.075 522.681,470.408 519.5,472.5C 518.833,472.5 518.5,472.833 518.5,473.5C 513.833,476.5 509.167,479.5 504.5,482.5C 503.833,482.5 503.5,482.833 503.5,483.5C 502.167,484.167 500.833,484.833 499.5,485.5C 498.833,485.5 498.5,485.833 498.5,486.5C 491.626,490.104 484.626,493.437 477.5,496.5C 476.833,496.5 476.5,496.833 476.5,497.5C 475.167,497.833 473.833,498.167 472.5,498.5C 471.833,498.5 471.5,498.833 471.5,499.5C 467.167,500.833 462.833,502.167 458.5,503.5C 457.833,503.5 457.5,503.833 457.5,504.5C 451.2,505.992 444.866,507.325 438.5,508.5C 437.833,508.5 437.5,508.833 437.5,509.5C 434.167,509.833 430.833,510.167 427.5,510.5C 426.833,510.5 426.5,510.833 426.5,511.5C 424.167,511.5 421.833,511.5 419.5,511.5C 418.833,511.5 418.5,511.833 418.5,512.5C 414.5,512.5 410.5,512.5 406.5,512.5C 405.508,512.328 404.842,512.662 404.5,513.5C 338.5,513.5 272.5,513.5 206.5,513.5C 206.158,512.662 205.492,512.328 204.5,512.5C 200.833,512.5 197.167,512.5 193.5,512.5C 193.5,511.833 193.167,511.5 192.5,511.5C 190.167,511.5 187.833,511.5 185.5,511.5C 185.5,510.833 185.167,510.5 184.5,510.5C 182.833,510.5 181.167,510.5 179.5,510.5C 179.5,509.833 179.167,509.5 178.5,509.5C 175.482,509.296 172.482,508.963 169.5,508.5C 169.5,507.833 169.167,507.5 168.5,507.5C 167.5,507.5 166.5,507.5 165.5,507.5C 165.5,506.833 165.167,506.5 164.5,506.5C 163.5,506.5 162.5,506.5 161.5,506.5C 161.5,505.833 161.167,505.5 160.5,505.5C 159.5,505.5 158.5,505.5 157.5,505.5C 157.5,504.833 157.167,504.5 156.5,504.5C 152.777,503.703 149.11,502.703 145.5,501.5C 145.5,500.833 145.167,500.5 144.5,500.5C 142.079,500.122 139.746,499.455 137.5,498.5C 137.5,497.833 137.167,497.5 136.5,497.5C 134.5,496.833 132.5,496.167 130.5,495.5C 130.5,494.833 130.167,494.5 129.5,494.5C 125.71,493.105 122.043,491.438 118.5,489.5C 118.5,488.833 118.167,488.5 117.5,488.5C 114.833,487.167 112.167,485.833 109.5,484.5C 109.5,483.833 109.167,483.5 108.5,483.5C 102.228,479.892 96.228,475.892 90.5,471.5C 90.5,470.833 90.1667,470.5 89.5,470.5C 85.8781,468.213 82.5448,465.547 79.5,462.5C 79.5,461.833 79.1667,461.5 78.5,461.5C 72.5,456.167 66.8333,450.5 61.5,444.5C 61.5,443.833 61.1667,443.5 60.5,443.5C 59.1667,441.833 57.8333,440.167 56.5,438.5C 56.5,437.833 56.1667,437.5 55.5,437.5C 49.0913,429.686 43.4246,421.353 38.5,412.5C 38.5,411.833 38.1667,411.5 37.5,411.5C 35.8333,408.167 34.1667,404.833 32.5,401.5C 32.5,400.833 32.1667,400.5 31.5,400.5C 31.5,400.167 31.5,399.833 31.5,399.5C 31.5,398.833 31.1667,398.5 30.5,398.5C 29.5,395.833 28.5,393.167 27.5,390.5C 27.5,389.833 27.1667,389.5 26.5,389.5C 26.1667,388.167 25.8333,386.833 25.5,385.5C 25.5,384.833 25.1667,384.5 24.5,384.5C 23.8333,382.167 23.1667,379.833 22.5,377.5C 22.5,376.833 22.1667,376.5 21.5,376.5C 21.5,375.833 21.5,375.167 21.5,374.5C 21.5,373.833 21.1667,373.5 20.5,373.5C 19.6766,370.539 19.01,367.539 18.5,364.5C 18.5,363.833 18.1667,363.5 17.5,363.5C 16.2427,357.546 15.2427,351.546 14.5,345.5C 14.5,344.833 14.1667,344.5 13.5,344.5C 13.5,342.5 13.5,340.5 13.5,338.5C 13.5,337.833 13.1667,337.5 12.5,337.5C 12.5,334.167 12.5,330.833 12.5,327.5C 12.5,326.833 12.1667,326.5 11.5,326.5C 11.5,316.833 11.5,307.167 11.5,297.5C 12.1667,297.5 12.5,297.167 12.5,296.5C 12.5,293.833 12.5,291.167 12.5,288.5C 13.1667,288.5 13.5,288.167 13.5,287.5C 13.5,285.5 13.5,283.5 13.5,281.5C 14.1667,281.5 14.5,281.167 14.5,280.5C 14.5,279.167 14.5,277.833 14.5,276.5C 15.1667,276.5 15.5,276.167 15.5,275.5C 15.5,274.167 15.5,272.833 15.5,271.5C 16.1667,271.5 16.5,271.167 16.5,270.5C 16.5,269.5 16.5,268.5 16.5,267.5C 17.1667,267.5 17.5,267.167 17.5,266.5C 17.5,265.5 17.5,264.5 17.5,263.5C 18.1667,263.5 18.5,263.167 18.5,262.5C 18.5172,260.435 18.8505,258.435 19.5,256.5C 20.1667,256.5 20.5,256.167 20.5,255.5C 20.6287,253.784 20.962,252.117 21.5,250.5C 22.1667,250.5 22.5,250.167 22.5,249.5C 22.5,248.833 22.5,248.167 22.5,247.5C 23.1667,247.5 23.5,247.167 23.5,246.5C 25.4411,240.343 27.7745,234.343 30.5,228.5C 31.1667,228.5 31.5,228.167 31.5,227.5C 31.5,227.167 31.5,226.833 31.5,226.5C 32.1667,226.5 32.5,226.167 32.5,225.5C 32.5,225.167 32.5,224.833 32.5,224.5C 33.1667,224.5 33.5,224.167 33.5,223.5C 34.7729,221.287 35.7729,218.954 36.5,216.5C 73.6309,156.91 127.298,123.076 197.5,115C 246.5,114.667 295.5,114.333 344.5,114C 390.065,75.5924 435.731,37.4257 481.5,-0.5 Z"/></g>
<g><path style="opacity:1" fill="#425b81" d="M 36.5,216.5 C 35.7729,218.954 34.7729,221.287 33.5,223.5C 32.8333,223.5 32.5,223.833 32.5,224.5C 32.5,224.833 32.5,225.167 32.5,225.5C 31.8333,225.5 31.5,225.833 31.5,226.5C 31.5,226.833 31.5,227.167 31.5,227.5C 30.8333,227.5 30.5,227.833 30.5,228.5C 27.7745,234.343 25.4411,240.343 23.5,246.5C 22.8333,246.5 22.5,246.833 22.5,247.5C 22.5,248.167 22.5,248.833 22.5,249.5C 21.8333,249.5 21.5,249.833 21.5,250.5C 20.962,252.117 20.6287,253.784 20.5,255.5C 19.8333,255.5 19.5,255.833 19.5,256.5C 18.8505,258.435 18.5172,260.435 18.5,262.5C 17.8333,262.5 17.5,262.833 17.5,263.5C 17.5,264.5 17.5,265.5 17.5,266.5C 16.8333,266.5 16.5,266.833 16.5,267.5C 16.5,268.5 16.5,269.5 16.5,270.5C 15.8333,270.5 15.5,270.833 15.5,271.5C 15.5,272.833 15.5,274.167 15.5,275.5C 14.8333,275.5 14.5,275.833 14.5,276.5C 14.5,277.833 14.5,279.167 14.5,280.5C 13.8333,280.5 13.5,280.833 13.5,281.5C 13.5,283.5 13.5,285.5 13.5,287.5C 12.8333,287.5 12.5,287.833 12.5,288.5C 12.5,291.167 12.5,293.833 12.5,296.5C 11.8333,296.5 11.5,296.833 11.5,297.5C 11.5,307.167 11.5,316.833 11.5,326.5C 12.1667,326.5 12.5,326.833 12.5,327.5C 12.5,330.833 12.5,334.167 12.5,337.5C 13.1667,337.5 13.5,337.833 13.5,338.5C 13.5,340.5 13.5,342.5 13.5,344.5C 14.1667,344.5 14.5,344.833 14.5,345.5C 15.2427,351.546 16.2427,357.546 17.5,363.5C 18.1667,363.5 18.5,363.833 18.5,364.5C 19.01,367.539 19.6766,370.539 20.5,373.5C 21.1667,373.5 21.5,373.833 21.5,374.5C 21.5,375.167 21.5,375.833 21.5,376.5C 22.1667,376.5 22.5,376.833 22.5,377.5C 23.1667,379.833 23.8333,382.167 24.5,384.5C 25.1667,384.5 25.5,384.833 25.5,385.5C 25.8333,386.833 26.1667,388.167 26.5,389.5C 27.1667,389.5 27.5,389.833 27.5,390.5C 28.5,393.167 29.5,395.833 30.5,398.5C 31.1667,398.5 31.5,398.833 31.5,399.5C 31.5,399.833 31.5,400.167 31.5,400.5C 32.1667,400.5 32.5,400.833 32.5,401.5C 34.1667,404.833 35.8333,408.167 37.5,411.5C 38.1667,411.5 38.5,411.833 38.5,412.5C 43.4246,421.353 49.0913,429.686 55.5,437.5C 56.1667,437.5 56.5,437.833 56.5,438.5C 57.8333,440.167 59.1667,441.833 60.5,443.5C 61.1667,443.5 61.5,443.833 61.5,444.5C 66.8333,450.5 72.5,456.167 78.5,461.5C 79.1667,461.5 79.5,461.833 79.5,462.5C 82.5448,465.547 85.8781,468.213 89.5,470.5C 90.1667,470.5 90.5,470.833 90.5,471.5C 96.228,475.892 102.228,479.892 108.5,483.5C 109.167,483.5 109.5,483.833 109.5,484.5C 112.167,485.833 114.833,487.167 117.5,488.5C 118.167,488.5 118.5,488.833 118.5,489.5C 122.043,491.438 125.71,493.105 129.5,494.5C 130.167,494.5 130.5,494.833 130.5,495.5C 132.5,496.167 134.5,496.833 136.5,497.5C 137.167,497.5 137.5,497.833 137.5,498.5C 139.746,499.455 142.079,500.122 144.5,500.5C 145.167,500.5 145.5,500.833 145.5,501.5C 149.11,502.703 152.777,503.703 156.5,504.5C 157.167,504.5 157.5,504.833 157.5,505.5C 158.5,505.5 159.5,505.5 160.5,505.5C 161.167,505.5 161.5,505.833 161.5,506.5C 162.5,506.5 163.5,506.5 164.5,506.5C 165.167,506.5 165.5,506.833 165.5,507.5C 166.5,507.5 167.5,507.5 168.5,507.5C 169.167,507.5 169.5,507.833 169.5,508.5C 172.482,508.963 175.482,509.296 178.5,509.5C 179.167,509.5 179.5,509.833 179.5,510.5C 181.167,510.5 182.833,510.5 184.5,510.5C 185.167,510.5 185.5,510.833 185.5,511.5C 187.833,511.5 190.167,511.5 192.5,511.5C 193.167,511.5 193.5,511.833 193.5,512.5C 197.167,512.5 200.833,512.5 204.5,512.5C 204.842,513.338 205.508,513.672 206.5,513.5C 272.5,513.5 338.5,513.5 404.5,513.5C 405.492,513.672 406.158,513.338 406.5,512.5C 410.5,512.5 414.5,512.5 418.5,512.5C 419.167,512.5 419.5,512.167 419.5,511.5C 421.833,511.5 424.167,511.5 426.5,511.5C 427.167,511.5 427.5,511.167 427.5,510.5C 430.833,510.167 434.167,509.833 437.5,509.5C 438.167,509.5 438.5,509.167 438.5,508.5C 444.866,507.325 451.2,505.992 457.5,504.5C 458.167,504.5 458.5,504.167 458.5,503.5C 462.833,502.167 467.167,500.833 471.5,499.5C 472.167,499.5 472.5,499.167 472.5,498.5C 473.833,498.167 475.167,497.833 476.5,497.5C 477.167,497.5 477.5,497.167 477.5,496.5C 484.626,493.437 491.626,490.104 498.5,486.5C 499.167,486.5 499.5,486.167 499.5,485.5C 500.833,484.833 502.167,484.167 503.5,483.5C 504.167,483.5 504.5,483.167 504.5,482.5C 509.167,479.5 513.833,476.5 518.5,473.5C 519.167,473.5 519.5,473.167 519.5,472.5C 522.681,470.408 525.681,468.075 528.5,465.5C 529.167,465.5 529.5,465.167 529.5,464.5C 532.5,461.833 535.5,459.167 538.5,456.5C 539.167,456.5 539.5,456.167 539.5,455.5C 541.5,453.833 543.5,452.167 545.5,450.5C 513.792,491.714 472.125,517.214 420.5,527C 411.708,528.348 403.041,529.514 394.5,530.5C 326.5,530.5 258.5,530.5 190.5,530.5C 116.602,523.984 60.7683,488.984 23,425.5C 10.5125,402.187 2.67917,377.52 -0.5,351.5C -0.5,337.5 -0.5,323.5 -0.5,309.5C 3.80478,275.242 16.1381,244.242 36.5,216.5 Z"/></g>
</svg>
