<?xml version="1.0" encoding="UTF-8"?>
<!DOCTYPE svg PUBLIC "-//W3C//DTD SVG 1.1//EN" "http://www.w3.org/Graphics/SVG/1.1/DTD/svg11.dtd">
<svg xmlns="http://www.w3.org/2000/svg" version="1.1" width="586px" height="586px" style="shape-rendering:geometricPrecision; text-rendering:geometricPrecision; image-rendering:optimizeQuality; fill-rule:evenodd; clip-rule:evenodd" xmlns:xlink="http://www.w3.org/1999/xlink">
<g><path style="opacity:1" fill="#102c57" d="M 287.5,-0.5 C 287.833,-0.5 288.167,-0.5 288.5,-0.5C 288.5,0.166667 288.833,0.5 289.5,0.5C 298.456,7.77995 307.456,15.1133 316.5,22.5C 317.107,22.3764 317.44,22.0431 317.5,21.5C 327.256,16.9277 336.922,12.0944 346.5,7C 347.928,6.42094 349.262,6.58761 350.5,7.5C 357.117,16.6234 363.951,25.6234 371,34.5C 372.011,33.6634 373.178,33.33 374.5,33.5C 384.716,30.7367 394.883,27.7367 405,24.5C 406.011,25.0556 406.844,25.7222 407.5,26.5C 411.881,36.2623 416.547,45.929 421.5,55.5C 423.396,56.4656 425.396,56.7989 427.5,56.5C 436.865,56.2924 446.199,55.6257 455.5,54.5C 457.355,54.3402 458.688,55.0069 459.5,56.5C 462.165,67.827 464.832,79.1604 467.5,90.5C 469.833,90.5 472.167,90.5 474.5,90.5C 484.405,92.1587 494.405,93.8254 504.5,95.5C 504.168,107.518 504.501,119.518 505.5,131.5C 507.729,132.577 510.063,133.244 512.5,133.5C 521.5,136.833 530.5,140.167 539.5,143.5C 536.238,155.665 534.571,167.998 534.5,180.5C 543.5,186 552.5,191.5 561.5,197C 562.574,197.739 563.241,198.739 563.5,200C 558.971,210.586 554.638,221.253 550.5,232C 559.1,240.6 567.767,249.267 576.5,258C 569.579,267.845 562.913,277.845 556.5,288C 562.913,298.155 569.579,308.155 576.5,318C 568.303,326.531 559.803,334.698 551,342.5C 555.197,354.092 559.197,365.759 563,377.5C 553.633,383.698 544.133,389.698 534.5,395.5C 534.167,396.5 533.833,397.5 533.5,398.5C 535.183,409.231 537.183,419.897 539.5,430.5C 539.167,431.167 538.833,431.833 538.5,432.5C 527.5,436.5 516.5,440.5 505.5,444.5C 504.38,456.81 503.713,469.143 503.5,481.5C 491.482,482.729 479.482,484.229 467.5,486C 464.286,497.617 461.286,509.284 458.5,521C 446.182,520.391 433.848,520.057 421.5,520C 416.644,530.213 411.644,540.379 406.5,550.5C 405.833,550.833 405.167,551.167 404.5,551.5C 393.282,548.239 382.115,544.905 371,541.5C 363.333,551.167 355.667,560.833 348,570.5C 337.476,564.571 326.809,558.905 316,553.5C 306.387,560.775 297.054,568.442 288,576.5C 278.833,568.59 269.499,560.923 260,553.5C 249.191,558.905 238.524,564.571 228,570.5C 220.5,561 213,551.5 205.5,542C 193.715,544.423 182.049,547.59 170.5,551.5C 169.479,550.099 168.479,548.765 167.5,547.5C 164.167,540.833 160.833,534.167 157.5,527.5C 156.513,524.854 155.513,522.188 154.5,519.5C 142.145,519.168 129.812,519.834 117.5,521.5C 114.915,512.249 112.582,502.915 110.5,493.5C 109.525,490.933 108.858,488.267 108.5,485.5C 96.7822,484.577 85.1156,483.244 73.5,481.5C 72.1796,471.694 71.5129,461.694 71.5,451.5C 71.5,449.167 71.5,446.833 71.5,444.5C 60.4379,441.035 49.4379,437.368 38.5,433.5C 37.9094,432.849 37.2427,432.182 36.5,431.5C 38.6295,421.519 40.6295,411.519 42.5,401.5C 42.7989,399.396 42.4656,397.396 41.5,395.5C 32.1388,389.822 22.8055,384.155 13.5,378.5C 12.5876,377.262 12.4209,375.928 13,374.5C 17.1223,365.259 20.9557,355.926 24.5,346.5C 25.4124,345.262 25.5791,343.928 25,342.5C 16.9956,335.328 9.16227,327.995 1.5,320.5C 1.16667,319.5 0.5,318.833 -0.5,318.5C -0.5,318.167 -0.5,317.833 -0.5,317.5C 6.3253,308.521 12.6586,299.188 18.5,289.5C 19.5735,288.749 19.7401,287.749 19,286.5C 12.9702,277.653 6.80356,268.986 0.5,260.5C 0.67158,259.508 0.338246,258.842 -0.5,258.5C -0.5,258.167 -0.5,257.833 -0.5,257.5C 8.1726,249.16 16.8393,240.827 25.5,232.5C 20.2111,221.456 16.0444,210.122 13,198.5C 23.421,192.374 33.5876,185.874 43.5,179C 41.1664,167.332 38.833,155.665 36.5,144C 47.7949,139.735 59.1282,135.568 70.5,131.5C 71.6201,119.19 72.2868,106.857 72.5,94.5C 84.5443,93.4224 96.5443,91.9224 108.5,90C 111.415,78.5059 114.415,67.0059 117.5,55.5C 118.5,55.1667 119.5,54.8333 120.5,54.5C 131.004,55.4747 141.504,56.4747 152,57.5C 152.833,57.1667 153.667,56.8333 154.5,56.5C 159.228,46.0445 164.228,35.7112 169.5,25.5C 170.723,24.3861 172.056,24.2195 173.5,25C 183.885,28.0128 194.219,31.1794 204.5,34.5C 212.183,25.6463 219.516,16.4797 226.5,7C 228.18,6.96566 229.68,6.799 231,6.5C 232.271,7.88254 233.771,8.88254 235.5,9.5C 243.105,13.6383 250.771,17.805 258.5,22C 259.749,22.7401 260.749,22.5735 261.5,21.5C 270.485,14.5126 279.152,7.17931 287.5,-0.5 Z"/></g>
<g><path style="opacity:1" fill="#415a80" d="M 291.5,-0.5 C 292.167,-0.5 292.833,-0.5 293.5,-0.5C 301.5,6.83333 309.5,14.1667 317.5,21.5C 317.44,22.0431 317.107,22.3764 316.5,22.5C 307.456,15.1133 298.456,7.77995 289.5,0.5C 290.492,0.67158 291.158,0.338246 291.5,-0.5 Z"/></g>
<g><path style="opacity:1" fill="#425b81" d="M 374.5,33.5 C 373.178,33.33 372.011,33.6634 371,34.5C 363.951,25.6234 357.117,16.6234 350.5,7.5C 352.611,6.03187 354.444,6.3652 356,8.5C 362.384,16.7109 368.551,25.0442 374.5,33.5 Z"/></g>
<g><path style="opacity:1" fill="#40587f" d="M 235.5,9.5 C 244.426,12.9634 253.093,16.9634 261.5,21.5C 260.749,22.5735 259.749,22.7401 258.5,22C 250.771,17.805 243.105,13.6383 235.5,9.5 Z"/></g>
<g><path style="opacity:1" fill="#425b81" d="M 427.5,56.5 C 425.396,56.7989 423.396,56.4656 421.5,55.5C 416.547,45.929 411.881,36.2623 407.5,26.5C 409.339,25.2475 411.172,25.2475 413,26.5C 418.119,36.4043 422.953,46.4043 427.5,56.5 Z"/></g>
<g><path style="opacity:1" fill="#425b81" d="M 474.5,90.5 C 472.167,90.5 469.833,90.5 467.5,90.5C 464.832,79.1604 462.165,67.827 459.5,56.5C 462.009,54.8428 464.175,55.1762 466,57.5C 468.686,68.5773 471.519,79.5773 474.5,90.5 Z"/></g>
<g><path style="opacity:1" fill="#425b81" d="M 504.5,95.5 C 506.806,95.9926 509.139,96.3259 511.5,96.5C 511.622,108.84 511.955,121.174 512.5,133.5C 510.063,133.244 507.729,132.577 505.5,131.5C 504.501,119.518 504.168,107.518 504.5,95.5 Z"/></g>
<g><path style="opacity:1" fill="#425b81" d="M 539.5,143.5 C 542.112,144.371 544.779,145.037 547.5,145.5C 545.54,157.767 543.206,169.933 540.5,182C 550.916,188.625 561.416,195.125 572,201.5C 568.252,213.184 563.752,224.684 558.5,236C 567.067,245.07 576.067,253.57 585.5,261.5C 585.5,261.833 585.5,262.167 585.5,262.5C 578.522,272.434 571.522,282.434 564.5,292.5C 571.522,302.566 578.522,312.566 585.5,322.5C 585.5,322.833 585.5,323.167 585.5,323.5C 576.067,331.43 567.067,339.93 558.5,349C 563.752,360.316 568.252,371.816 572,383.5C 561.416,389.875 550.916,396.375 540.5,403C 543.206,415.067 545.54,427.233 547.5,439.5C 535.831,443.001 524.331,447.001 513,451.5C 511.955,463.813 511.455,476.146 511.5,488.5C 498.996,489.761 486.663,491.761 474.5,494.5C 471.5,505.833 468.5,517.167 465.5,528.5C 464.667,528.833 463.833,529.167 463,529.5C 451.505,528.167 440.005,527.334 428.5,527C 423.438,537.791 418.105,548.457 412.5,559C 400.534,556.549 388.7,553.382 377,549.5C 369.304,559.519 361.304,569.186 353,578.5C 342.277,573.222 331.777,567.555 321.5,561.5C 311.828,569.178 302.494,577.178 293.5,585.5C 292.833,585.5 292.167,585.5 291.5,585.5C 282.506,577.178 273.172,569.178 263.5,561.5C 252.904,567.047 242.404,572.713 232,578.5C 223.696,569.186 215.696,559.519 208,549.5C 196.885,552.905 185.718,556.239 174.5,559.5C 173.558,559.392 172.725,559.059 172,558.5C 169.928,555.029 168.428,551.362 167.5,547.5C 168.479,548.765 169.479,550.099 170.5,551.5C 182.049,547.59 193.715,544.423 205.5,542C 213,551.5 220.5,561 228,570.5C 238.524,564.571 249.191,558.905 260,553.5C 269.499,560.923 278.833,568.59 288,576.5C 297.054,568.442 306.387,560.775 316,553.5C 326.809,558.905 337.476,564.571 348,570.5C 355.667,560.833 363.333,551.167 371,541.5C 382.115,544.905 393.282,548.239 404.5,551.5C 405.167,551.167 405.833,550.833 406.5,550.5C 411.644,540.379 416.644,530.213 421.5,520C 433.848,520.057 446.182,520.391 458.5,521C 461.286,509.284 464.286,497.617 467.5,486C 479.482,484.229 491.482,482.729 503.5,481.5C 503.713,469.143 504.38,456.81 505.5,444.5C 516.5,440.5 527.5,436.5 538.5,432.5C 538.833,431.833 539.167,431.167 539.5,430.5C 537.183,419.897 535.183,409.231 533.5,398.5C 533.833,397.5 534.167,396.5 534.5,395.5C 544.133,389.698 553.633,383.698 563,377.5C 559.197,365.759 555.197,354.092 551,342.5C 559.803,334.698 568.303,326.531 576.5,318C 569.579,308.155 562.913,298.155 556.5,288C 562.913,277.845 569.579,267.845 576.5,258C 567.767,249.267 559.1,240.6 550.5,232C 554.638,221.253 558.971,210.586 563.5,200C 563.241,198.739 562.574,197.739 561.5,197C 552.5,191.5 543.5,186 534.5,180.5C 534.571,167.998 536.238,155.665 539.5,143.5 Z"/></g>
<g><path style="opacity:1" fill="#40597f" d="M 0.5,260.5 C 6.80356,268.986 12.9702,277.653 19,286.5C 19.7401,287.749 19.5735,288.749 18.5,289.5C 12.4002,280.287 6.0669,271.287 -0.5,262.5C -0.5,262.167 -0.5,261.833 -0.5,261.5C 0.166667,261.5 0.5,261.167 0.5,260.5 Z"/></g>
<g><path style="opacity:1" fill="#415a80" d="M 1.5,320.5 C 9.16227,327.995 16.9956,335.328 25,342.5C 25.5791,343.928 25.4124,345.262 24.5,346.5C 16.3565,338.6 8.02316,330.934 -0.5,323.5C -0.5,323.167 -0.5,322.833 -0.5,322.5C 0.5,322.167 1.16667,321.5 1.5,320.5 Z"/></g>
<g><path style="opacity:1" fill="#425b81" d="M 13.5,378.5 C 22.8055,384.155 32.1388,389.822 41.5,395.5C 42.4656,397.396 42.7989,399.396 42.5,401.5C 32.8611,395.678 23.1944,389.845 13.5,384C 12.8617,382.293 12.8617,380.46 13.5,378.5 Z"/></g>
<g><path style="opacity:1" fill="#425b81" d="M 38.5,433.5 C 49.4379,437.368 60.4379,441.035 71.5,444.5C 71.5,446.833 71.5,449.167 71.5,451.5C 60.3865,446.906 49.0531,442.906 37.5,439.5C 37.5172,437.435 37.8505,435.435 38.5,433.5 Z"/></g>
<g><path style="opacity:1" fill="#425b81" d="M 73.5,481.5 C 85.1156,483.244 96.7822,484.577 108.5,485.5C 108.858,488.267 109.525,490.933 110.5,493.5C 98.1828,491.74 85.8495,490.074 73.5,488.5C 73.5,486.167 73.5,483.833 73.5,481.5 Z"/></g>
<g><path style="opacity:1" fill="#415a80" d="M 157.5,527.5 C 145.723,527.28 133.889,527.947 122,529.5C 121.167,529.167 120.333,528.833 119.5,528.5C 118.675,526.199 118.008,523.865 117.5,521.5C 129.812,519.834 142.145,519.168 154.5,519.5C 155.513,522.188 156.513,524.854 157.5,527.5 Z"/></g>
</svg>
